<svg height="512" viewBox="0 0 60 60" width="512" xmlns="http://www.w3.org/2000/svg"><g id="Page-1" fill="#c78030" fill-rule="evenodd"><g id="050---Gift-Shop" fill="#c78030" fill-rule="nonzero"><path fill="#c78030" id="Shape" d="m51.167 1.753c-1.1265171-1.11928429-2.648975-1.74918014-4.237-1.753h-33.86c-1.588025.00381986-3.11048293.63371571-4.237 1.753l-7.95 7.947c-.56774242.5630736-.88583675 1.3303906-.883 2.13v3.17c-.01110396 1.8752999.70588273 3.6817478 2 5.039v34.145c-1.19435086.4222546-1.99474861 1.5492146-2 2.816v2c0 .5522847.44771525 1 1 1h58c.5522847 0 1-.4477153 1-1v-2c-.0052514-1.2667854-.8056491-2.3937454-2-2.816v-34.145c1.2941173-1.3572522 2.011104-3.1637001 2-5.039v-3.17c.0028367-.7996094-.3152576-1.5669264-.883-2.13zm-1.414 1.414 7.833 7.833h-8.992l-4.91-9h3.246c1.0578323.00272135 2.0720268.42197924 2.823 1.167zm-2.753 11.833c0 2.7614237-2.2385763 5-5 5s-5-2.2385763-5-5v-2h10zm-45 0v-2h9v2c.1277633 2.6196938-1.88136806 4.8520619-4.5 5-2.61863194-.1479381-4.62776329-2.3803062-4.5-5zm11-2h10v2c0 2.7614237-2.2385763 5-5 5s-5-2.2385763-5-5zm23.834-2-1.634-9h6.208l4.91 9zm-2.034 0h-9.6l1.636-9h6.332zm-11.634 0h-9.482l4.91-9h6.206zm1.834 2h10v2c0 2.7614237-2.2385763 5-5 5s-5-2.2385763-5-5zm-14.753-9.833c.7509732-.74502076 1.7651677-1.16427865 2.823-1.167h3.246l-4.91 9h-8.992zm47.753 54.833h-56v-1c0-.5522847.44771525-1 1-1h54c.5522847 0 1 .4477153 1 1zm-50-32h14v16h-2c-.2651948.0000566-.5195073.1054506-.707.293l-1 1c-.2599566.2510745-.3642126.6228779-.2726972.9725073.0915155.3496295.3645604.6226744.7141899.7141899.3496294.0915154.7214328-.0127406.9725073-.2726972l.707-.707h1.586v10h-14zm27 24c-.5522847 0-1-.4477153-1-1v-6h4v7zm16-9h-4v-2h3c.5522847 0 1 .4477153 1 1zm-10-6h2c.5522847 0 1 .4477153 1 1v1h-4v-1c0-.5522847.4477153-1 1-1zm-2 4h6v2h-6zm10.779-3.773c-1.005122 1.0211349-2.3494823 1.6387082-3.779 1.736v-.963c-.0039477-.2966547-.0528362-.5909975-.145-.873.4512735-.5027991.9908479-.9186645 1.592-1.227.3197527-.1596977.5300187-.4778505.5515928-.8346134.0215741-.3567628-.1488214-.6979349-.447-.895-.2981787-.1970651-.6788401-.2200843-.9985928-.0603866-.7050769.3605218-1.3467948.8333666-1.9 1.4-.317075-.2117757-.671811-.3607988-1.045-.439.916533-1.5542779 2.4379035-2.6576337 4.2-3.046.2503846-.0469587.5021558.0746699.621.3.8421058 1.2438241 1.3802284 2.668085 1.571 4.158.032225.2678768-.0477621.5371545-.221.744zm-10.435-1.727c-.5532052-.5666334-1.1949231-1.0394782-1.9-1.4-.4942948-.2468713-1.0951287-.0462948-1.342.448-.2468712.4942949-.0462948 1.0951287.448 1.342.6015601.3098272 1.141162.7274086 1.592 1.232-.091645.2837576-.1395276.5798205-.142.878v.963c-1.4276364-.0969009-2.7704355-.7129878-3.775-1.732-.1755831-.2068947-.2571054-.4775485-.225-.747.1886659-1.4975723.7283096-2.9294269 1.575-4.179.120796-.2208144.3713562-.3371749.618-.287 1.758959.3901518 3.2770724 1.4928845 4.192 3.045-.3716537.0780738-.7249808.2263965-1.041.437zm-2.344 5.5v2h-4v-1c0-.5522847.4477153-1 1-1zm3 4h4v7h-4zm6 0h4v6c0 .5522847-.4477153 1-1 1h-3zm6 6v-6.278c.6167513-.3544126.997855-1.0106732 1-1.722v-1c-.0042407-1.3837748-.9544139-2.5851242-2.3-2.908.2-.171.38-.336.522-.484.5780758-.6315473.8548243-1.4822114.759-2.333-.2226205-1.8112024-.86836-3.5445934-1.885-5.06-.5905578-.9429042-1.7199085-1.3998879-2.8-1.133-2.1946333.5168077-4.0973318 1.8773665-5.296 3.787-1.197436-1.9092975-3.0992308-3.2696216-5.293-3.786-1.077637-.2690224-2.2063302.1832611-2.8 1.122-1.0204919 1.5181201-1.6686926 3.2554488-1.892 5.071-.0954111.8526658.1828328 1.7049017.763 2.337.141.146.32.31.517.479-1.3436005.324838-2.2913191 1.5256945-2.295 2.908v1c.002145.7113268.3832487 1.3675874 1 1.722v6.278c.0033144.3414397.0655622.679743.184 1h-4.184v-24h28v24h-4.184c.1184378-.320257.1806856-.6585603.184-1zm4-25h-28c-1.1045695 0-2 .8954305-2 2v24c0 1.1045695.8954305 2 2 2h28v2h-32v-28c0-1.1045695-.8954305-2-2-2h-14c-1.1045695 0-2 .8954305-2 2v28h-2v-32.54c.78545467.3557212 1.6377491.5398168 2.5.54 2.31209579-.0334715 4.4273777-1.3082946 5.537-3.337 1.2807111 2.0821014 3.5547927 3.345303 5.9992153 3.33243 2.4444225-.0128729 4.7050737-1.2999554 5.9637847-3.39543 1.2656223 2.1061227 3.5428568 3.3944487 6 3.3944487s4.7343777-1.288326 6-3.3944487c1.2592381 2.0951517 3.520208 3.3816618 5.9646284 3.3939217s4.718181-1.2515064 5.9983716-3.3339217c1.1088401 2.029864 3.2242716 3.3059234 5.537 3.34.8622509-.0001832 1.7145453-.1842788 2.5-.54zm-2.5-4c-2.6186319-.1479381-4.6277633-2.3803062-4.5-5v-2h9v2c.1277633 2.6196938-1.8813681 4.8520619-4.5 5z"/><path fill="#c78030" id="Shape" d="m20 38v-8c0-1.1045695-.8954305-2-2-2h-6c-1.1045695 0-2 .8954305-2 2v8c0 1.1045695.8954305 2 2 2h6c1.1045695 0 2-.8954305 2-2zm-8-8h6v8h-6z"/></g></g></svg>