<?xml version="1.0" standalone="no"?>
<!DOCTYPE svg PUBLIC "-//W3C//DTD SVG 20010904//EN"
 "http://www.w3.org/TR/2001/REC-SVG-20010904/DTD/svg10.dtd">
<svg version="1.0" xmlns="http://www.w3.org/2000/svg"
 width="512.000000pt" height="512.000000pt" viewBox="0 0 512.000000 512.000000"
 preserveAspectRatio="xMidYMid meet">

<g transform="translate(0.000000,512.000000) scale(0.100000,-0.100000)"
fill="#c78030" stroke="none">
<path fill="#c78030" d="M700 5104 c-162 -43 -285 -183 -310 -351 -5 -37 -10 -219 -10 -403
l0 -334 -170 -511 c-160 -481 -170 -516 -170 -587 0 -146 28 -231 105 -316
140 -156 392 -166 540 -21 l41 39 38 -39 c134 -137 372 -137 522 1 33 30 45
37 49 26 3 -8 28 -31 55 -52 143 -109 335 -105 476 10 l54 44 54 -44 c141
-115 334 -119 476 -10 27 21 52 44 55 52 4 11 16 4 49 -26 88 -81 198 -116
318 -100 73 9 137 40 197 94 l48 43 37 -38 c74 -76 198 -116 312 -100 70 10
168 57 213 102 l33 35 40 -39 c138 -134 376 -135 516 -2 l42 39 32 -33 c18
-19 60 -48 94 -64 195 -96 426 -18 519 176 26 54 29 72 32 185 l4 125 -167
495 -168 495 -6 400 -5 400 -36 75 c-59 122 -155 202 -284 236 -78 21 -3546
19 -3625 -2z m3635 -181 c47 -25 95 -74 121 -123 17 -32 19 -66 22 -367 l3
-333 -1966 0 -1967 0 4 328 3 327 27 51 c15 29 44 66 65 83 77 64 -53 60 1883
58 l1765 -2 40 -22z m-3465 -998 c0 -3 -48 -196 -106 -430 l-106 -425 -204 0
c-112 0 -204 3 -204 7 0 5 63 198 141 430 l141 423 169 0 c93 0 169 -2 169 -5z
m520 -5 c0 -12 -126 -777 -136 -822 l-6 -28 -204 0 c-132 0 -204 4 -204 10 0
9 168 688 201 813 l10 37 169 0 c112 0 170 -4 170 -10z m520 -6 c0 -26 -60
-756 -66 -801 l-5 -43 -205 0 c-199 0 -204 1 -204 20 0 22 128 806 135 828 3
9 47 12 175 12 148 0 170 -2 170 -16z m520 -414 l0 -430 -210 0 -210 0 5 38
c3 20 19 208 36 417 16 209 32 386 34 393 3 9 47 12 175 12 l170 0 0 -430z
m524 373 c7 -64 66 -771 66 -790 0 -10 -49 -13 -210 -13 l-210 0 0 423 c0 233
3 427 7 430 3 4 82 7 174 7 l167 0 6 -57z m516 52 c0 -3 32 -194 70 -425 39
-231 70 -422 70 -425 0 -3 -94 -5 -210 -5 l-210 0 0 28 c0 15 -16 205 -34 422
-18 217 -32 398 -29 403 5 8 343 10 343 2z m616 -400 c55 -220 104 -412 107
-427 l7 -28 -207 0 -208 0 -71 425 c-39 234 -68 427 -65 430 2 3 79 4 170 3
l166 -3 101 -400z m560 -28 l143 -427 -207 2 -206 3 -103 410 c-56 226 -103
418 -103 428 0 16 13 17 167 15 l166 -3 143 -428z m-4006 -639 c-1 -57 -29
-116 -75 -156 -48 -43 -74 -52 -141 -52 -114 0 -196 79 -211 201 l-6 49 217 0
216 0 0 -42z m600 16 c0 -126 -94 -224 -215 -224 -121 0 -215 94 -215 218 l0
32 215 0 215 0 0 -26z m588 -34 c-8 -112 -93 -190 -206 -190 -123 0 -212 89
-212 211 l0 39 211 0 211 0 -4 -60z m602 17 c0 -61 -43 -142 -93 -175 -58 -39
-155 -43 -217 -10 -65 35 -103 93 -108 168 l-4 60 211 0 211 0 0 -43z m600 11
c0 -124 -94 -218 -215 -218 -121 0 -215 98 -215 224 l0 26 215 0 215 0 0 -32z
m597 -17 c-15 -122 -97 -201 -211 -201 -67 0 -93 9 -141 52 -46 40 -74 99 -75
156 l0 42 216 0 217 0 -6 -49z m591 -11 c-8 -113 -93 -190 -208 -190 -115 0
-200 77 -208 190 l-4 60 212 0 212 0 -4 -60z m602 17 c0 -106 -84 -197 -190
-205 -131 -10 -217 62 -235 196 l-7 52 216 0 216 0 0 -43z"/>
<path fill="#c78030" d="M900 4765 c-102 -32 -170 -129 -170 -244 0 -81 25 -136 86 -190 53
-47 115 -66 193 -58 67 6 106 23 150 68 103 103 104 257 2 359 -73 73 -163 95
-261 65z m114 -165 c31 -12 59 -63 50 -93 -20 -67 -93 -89 -139 -42 -42 41
-32 105 20 133 25 14 37 14 69 2z"/>
<path fill="#c78030" d="M1587 4766 c-113 -42 -177 -133 -177 -250 1 -183 202 -303 368 -220
188 93 186 359 -2 456 -51 26 -139 33 -189 14z m134 -185 c40 -40 36 -93 -10
-128 -48 -37 -131 6 -131 67 0 40 47 90 85 90 16 0 38 -12 56 -29z"/>
<path fill="#c78030" d="M2280 4771 c-137 -45 -213 -175 -180 -310 37 -154 210 -236 355 -167
188 89 196 351 14 450 -54 30 -143 42 -189 27z m119 -187 c60 -50 26 -144 -52
-144 -89 0 -116 117 -37 157 37 19 55 16 89 -13z"/>
<path fill="#c78030" d="M409 2274 l-24 -26 0 -771 0 -772 30 -54 c16 -29 45 -66 65 -82 74
-62 -10 -59 1646 -59 978 0 1522 4 1539 10 29 11 58 69 48 97 -3 10 -15 28
-26 41 l-20 22 -743 0 -743 0 -3 673 -3 672 -27 51 c-15 29 -44 66 -65 83 -69
58 -98 61 -503 61 -428 0 -445 -3 -521 -79 -81 -80 -79 -60 -79 -808 l0 -653
-175 0 c-197 0 -225 7 -244 61 -8 22 -11 257 -11 774 l0 742 -23 21 c-33 31
-87 29 -118 -4z m1551 -239 c20 -11 32 -27 40 -54 7 -25 9 -254 8 -667 l-3
-629 -427 -3 -428 -2 0 647 c0 500 3 654 13 673 24 48 38 50 415 50 295 0 358
-2 382 -15z"/>
<path fill="#c78030" d="M1714 1526 c-41 -18 -54 -57 -54 -161 0 -129 20 -165 93 -165 22 0
41 8 55 23 20 21 22 34 22 143 0 112 -2 122 -22 141 -32 29 -58 34 -94 19z"/>
<path fill="#c78030" d="M4505 2275 l-25 -24 0 -420 0 -420 23 -26 c32 -38 92 -38 124 0 l23
26 0 420 0 420 -25 24 c-16 17 -35 25 -60 25 -25 0 -44 -8 -60 -25z"/>
<path fill="#c78030" d="M2776 2204 c-33 -10 -64 -31 -97 -64 -77 -77 -81 -102 -77 -457 l3
-298 30 -54 c32 -57 68 -90 131 -118 34 -15 79 -18 348 -21 170 -2 325 -1 344
3 75 14 105 87 58 142 l-24 28 -329 3 c-224 1 -335 6 -351 14 -38 20 -44 66
-40 350 3 263 3 268 26 290 l23 23 498 3 499 3 31 -27 31 -26 0 -156 c0 -169
6 -196 51 -221 30 -17 71 -9 99 19 18 18 20 34 20 204 0 182 0 184 -28 237
-30 59 -95 111 -160 129 -23 6 -225 10 -537 9 -414 0 -508 -3 -549 -15z"/>
<path fill="#c78030" d="M3803 1429 c-47 -23 -81 -70 -90 -122 -4 -25 28 -154 121 -484 69
-248 130 -462 135 -475 14 -36 76 -86 117 -94 56 -10 108 11 195 82 44 35 83
64 87 64 4 0 59 -59 122 -132 233 -268 245 -277 337 -263 39 6 56 17 130 88
90 86 107 111 118 169 11 58 -20 109 -174 286 -77 90 -141 165 -141 167 0 3
26 30 59 62 43 43 60 68 65 95 10 53 -9 113 -47 150 -43 41 -906 427 -957 428
-19 0 -54 -9 -77 -21z m507 -339 c219 -96 398 -178 397 -183 -1 -4 -36 -35
-77 -70 -68 -57 -75 -66 -78 -103 -3 -39 2 -46 173 -244 96 -112 175 -206 175
-209 0 -3 -22 -30 -48 -60 l-48 -53 -188 215 c-103 118 -194 218 -202 221 -41
16 -67 3 -176 -85 -98 -78 -114 -88 -120 -72 -7 16 -205 721 -224 797 -5 19
-3 27 4 25 7 -2 192 -83 412 -179z"/>
</g>
</svg>
