<?xml version="1.0" standalone="no"?>
<!DOCTYPE svg PUBLIC "-//W3C//DTD SVG 20010904//EN"
 "http://www.w3.org/TR/2001/REC-SVG-20010904/DTD/svg10.dtd">
<svg version="1.0" xmlns="http://www.w3.org/2000/svg"
 width="512.000000pt" height="512.000000pt" viewBox="0 0 512.000000 512.000000"
 preserveAspectRatio="xMidYMid meet">

<g transform="translate(0.000000,512.000000) scale(0.100000,-0.100000)"
fill="#c78030" stroke="none">
<path fill="#c78030" d="M1115 5107 c-50 -19 -99 -54 -123 -87 -51 -69 -52 -78 -52 -589 l0
-476 24 -50 c25 -56 81 -110 135 -132 21 -9 84 -17 154 -21 l118 -5 -3 -81 -3
-81 -595 -5 -595 -5 -48 -28 c-56 -33 -99 -89 -116 -149 -9 -30 -11 -112 -9
-263 3 -242 6 -253 72 -323 49 -53 101 -75 189 -80 l77 -5 0 -1278 0 -1279
-100 0 c-94 0 -103 -2 -125 -25 -34 -33 -34 -87 0 -120 l24 -25 2421 0 2421 0
24 25 c17 16 25 35 25 60 0 25 -8 44 -25 60 -22 23 -31 25 -125 25 l-100 0 0
1279 0 1278 78 5 c87 5 139 27 188 80 66 70 69 81 72 323 2 151 0 233 -9 263
-17 60 -60 116 -116 149 l-48 28 -595 5 -595 5 -3 81 -3 81 118 5 c70 4 133
12 154 21 54 22 110 76 135 132 l24 50 0 476 c0 532 0 536 -69 607 -20 21 -55
47 -76 57 -39 20 -71 20 -1465 22 -1074 1 -1433 -1 -1455 -10z m2866 -186 l29
-29 0 -457 0 -456 -25 -24 -24 -25 -1401 0 -1401 0 -24 25 -25 24 0 456 0 457
29 29 29 29 1392 0 1392 0 29 -29z m-401 -1256 l0 -85 -1020 0 -1020 0 0 85 0
85 1020 0 1020 0 0 -85z m1325 -261 c38 -15 45 -55 45 -254 l0 -192 -29 -29
-29 -29 -2332 0 -2332 0 -29 29 -29 29 0 192 c0 194 8 239 42 253 19 8 4673 8
4693 1z m-295 -844 l0 -170 -400 0 c-318 0 -407 -3 -433 -14 -39 -16 -82 -61
-96 -99 -7 -19 -11 -237 -11 -658 0 -509 3 -636 14 -662 17 -42 66 -83 114
-97 22 -6 189 -10 425 -10 l387 0 0 -340 0 -340 -555 0 -555 0 -2 1018 c-3
970 -4 1019 -22 1052 -26 49 -74 98 -121 123 -40 22 -40 22 -795 22 -755 0
-755 0 -795 -22 -47 -25 -95 -74 -121 -123 -18 -33 -19 -82 -22 -1052 l-2
-1018 -555 0 -555 0 0 340 0 340 388 0 c235 0 402 4 424 10 48 14 97 55 114
97 21 48 20 1279 0 1326 -16 39 -61 82 -99 96 -18 7 -170 11 -428 11 l-399 0
0 170 0 170 2050 0 2050 0 0 -170z m-3330 -940 l0 -600 -382 2 -383 3 -3 598
-2 597 385 0 385 0 0 -600z m1190 515 l0 -85 -341 0 -341 0 4 62 c4 51 9 65
32 85 l27 23 310 0 309 0 0 -85z m826 62 c23 -20 28 -34 32 -85 l4 -62 -341 0
-341 0 0 85 0 85 309 0 310 0 27 -23z m1312 -574 l-3 -598 -382 -3 -383 -2 0
600 0 600 385 0 385 0 -2 -597z m-2138 -88 l0 -345 -58 0 c-48 0 -62 -4 -79
-22 -30 -34 -34 -55 -19 -92 16 -37 55 -56 117 -56 l39 0 0 -425 0 -425 -340
0 -340 0 0 855 0 855 340 0 340 0 0 -345z m860 -510 l0 -855 -340 0 -340 0 0
425 0 425 39 0 c62 0 101 19 117 56 9 23 11 41 5 57 -17 45 -39 57 -102 57
l-59 0 0 345 0 345 340 0 340 0 0 -855z"/>
<path fill="#c78030" d="M1422 4834 c-162 -81 -189 -294 -53 -417 40 -36 119 -67 173 -67 39
0 78 -40 78 -80 0 -40 -47 -90 -84 -90 -17 0 -42 15 -70 40 -52 48 -100 54
-133 18 -42 -47 -36 -87 20 -146 53 -56 102 -76 182 -77 59 0 78 5 123 29 221
122 154 441 -100 476 -94 13 -129 61 -93 129 29 57 90 57 145 1 31 -32 46 -40
75 -40 68 0 104 65 71 128 -57 109 -217 155 -334 96z"/>
<path fill="#c78030" d="M2002 4853 c-7 -3 -19 -18 -27 -33 -20 -39 -22 -721 -2 -760 27 -54
94 -63 137 -20 18 18 20 34 20 165 l0 145 130 0 130 0 0 -141 0 -141 29 -29
c18 -17 40 -29 56 -29 16 0 38 12 56 29 l29 29 0 372 0 371 -25 24 c-16 17
-35 25 -60 25 -25 0 -44 -8 -60 -25 -24 -23 -25 -28 -25 -170 l0 -146 -127 3
-128 3 -3 145 c-2 132 -4 146 -24 167 -21 22 -72 30 -106 16z"/>
<path fill="#c78030" d="M2872 4834 c-29 -14 -66 -42 -82 -62 -54 -65 -62 -115 -58 -359 3
-243 8 -262 80 -329 125 -119 326 -85 402 67 26 53 26 54 26 283 0 221 -1 233
-24 282 -60 128 -216 182 -344 118z m173 -169 c25 -24 25 -25 25 -227 -1 -212
-3 -223 -47 -246 -35 -19 -63 -14 -94 17 l-29 29 0 192 c0 237 7 257 88 259
22 1 41 -7 57 -24z"/>
<path fill="#c78030" d="M3442 4840 c-11 -11 -24 -35 -27 -52 -3 -18 -5 -190 -3 -381 l3 -349
29 -25 c24 -20 36 -24 65 -19 64 10 71 29 71 191 l0 142 78 5 c164 10 264 109
263 259 0 75 -26 133 -81 182 -65 60 -92 67 -243 67 -119 0 -135 -2 -155 -20z
m285 -172 c16 -15 23 -33 23 -60 0 -63 -44 -93 -126 -86 l-39 3 -3 83 -3 82
62 0 c51 0 67 -4 86 -22z"/>
</g>
</svg>
