<svg height="512.00003pt" viewBox="0 0 512.00003 512.00003" width="512.00003pt" xmlns="http://www.w3.org/2000/svg"><path fill="#c78030" d="m332.800781 42.667969h-153.601562c-9.425781 0-17.066407 7.640625-17.066407 17.066406v25.597656c0 9.425781 7.640626 17.066407 17.066407 17.066407h153.601562c9.425781 0 17.066407-7.640626 17.066407-17.066407v-25.597656c0-9.425781-7.640626-17.066406-17.066407-17.066406zm0 42.664062h-153.601562v-25.597656h153.601562zm0 0"/><path fill="#c78030" d="m486.398438 460.800781h-17.066407v-206.011719c15.027344-3.878906 25.542969-17.40625 25.601563-32.921874v-34.132813c-.003906-1.121094-.230469-2.226563-.65625-3.261719-.425782-1.035156-1.054688-1.976562-1.84375-2.773437l-48.699219-48.699219v-107.398438c0-14.140624-11.460937-25.601562-25.601563-25.601562h-324.265624c-14.140626 0-25.601563 11.460938-25.601563 25.601562v107.398438l-48.699219 48.699219c-.789062.796875-1.417968 1.738281-1.84375 2.773437-.425781 1.035156-.652344 2.140625-.65625 3.261719v34.132813c.058594 15.515624 10.574219 29.042968 25.601563 32.921874v206.011719h-17.066407c-14.140624 0-25.601562 11.460938-25.601562 25.597657v17.066406c0 4.714844 3.820312 8.535156 8.535156 8.535156h494.929688c4.714844 0 8.535156-3.820312 8.535156-8.535156v-17.066406c0-14.136719-11.460938-25.597657-25.601562-25.597657zm-8.53125-238.933593c0 9.425781-7.640626 17.066406-17.066407 17.066406s-17.066406-7.640625-17.066406-17.066406v-25.601563h34.132813zm-85.332032-25.601563h34.132813v25.601563c0 9.425781-7.640625 17.066406-17.066407 17.066406-9.425781 0-17.066406-7.640625-17.066406-17.066406zm-8.535156-17.066406h-337.800781l34.132812-34.132813h351.335938l34.132812 34.132813zm-42.667969 17.066406h34.132813v25.601563c0 9.425781-7.640625 17.066406-17.066406 17.066406-9.425782 0-17.066407-7.640625-17.066407-17.066406zm-51.199219 0h34.132813v25.601563c0 9.425781-7.640625 17.066406-17.066406 17.066406s-17.066407-7.640625-17.066407-17.066406zm-51.199218 0h34.132812v25.601563c0 9.425781-7.640625 17.066406-17.066406 17.066406s-17.066406-7.640625-17.066406-17.066406zm-51.199219 0h34.132813v25.601563c0 9.425781-7.640626 17.066406-17.066407 17.066406s-17.066406-7.640625-17.066406-17.066406zm-51.199219 0h34.132813v25.601563c0 9.425781-7.640625 17.066406-17.066407 17.066406-9.425781 0-17.066406-7.640625-17.066406-17.066406zm-51.203125 0h34.132813v25.601563c0 9.425781-7.640625 17.066406-17.066406 17.066406-9.425782 0-17.066407-7.640625-17.066407-17.066406zm0-170.664063c0-4.714843 3.820313-8.535156 8.535157-8.535156h324.265624c4.714844 0 8.535157 3.820313 8.535157 8.535156v102.398438h-341.335938zm-51.199219 196.265626v-25.601563h34.132813v25.601563c0 9.425781-7.640625 17.066406-17.066406 17.066406s-17.066407-7.640625-17.066407-17.066406zm25.601563 32.921874c6.625-1.726562 12.574219-5.414062 17.066406-10.582031 6.398438 7.484375 15.753907 11.792969 25.597657 11.792969 9.847656 0 19.203124-4.308594 25.601562-11.792969 6.398438 7.484375 15.753906 11.792969 25.601562 11.792969 9.84375 0 19.199219-4.308594 25.597657-11.792969 6.398437 7.484375 15.753906 11.792969 25.601562 11.792969 9.847657 0 19.199219-4.308594 25.597657-11.792969 6.402343 7.484375 15.753906 11.792969 25.601562 11.792969s19.199219-4.308594 25.601562-11.792969c6.398438 7.484375 15.75 11.792969 25.597657 11.792969 9.847656 0 19.203125-4.308594 25.601562-11.792969 6.398438 7.484375 15.753907 11.792969 25.597657 11.792969 9.847656 0 19.203124-4.308594 25.601562-11.792969 6.398438 7.484375 15.753906 11.792969 25.601562 11.792969 9.84375 0 19.199219-4.308594 25.597657-11.792969 4.492187 5.167969 10.441406 8.855469 17.066406 10.582031v206.011719h-238.933594v-170.667969c0-9.425781-7.640625-17.066406-17.066406-17.066406h-102.398437c-9.425782 0-17.066407 7.640625-17.066407 17.066406v170.667969h-17.066406zm136.53125 112.144532h-102.398437v-76.800782h102.398437zm-102.398437 17.066406h102.398437v76.800781h-102.398437zm401.066406 110.933594h-477.867188v-8.535156c0-4.710938 3.820313-8.53125 8.535156-8.53125h460.796876c4.714843 0 8.535156 3.820312 8.535156 8.53125zm0 0"/><path fill="#c78030" d="m114.6875 322.816406c.476562.324219.992188.582032 1.535156.769532.484375.246093 1.003906.417968 1.539063.511718.5625.097656 1.132812.15625 1.703125.167969.546875-.011719 1.089844-.070313 1.625-.167969.5625-.082031 1.113281-.253906 1.621094-.511718.523437-.171876 1.015624-.429688 1.449218-.769532.511719-.339844.9375-.683594 1.363282-1.023437.773437-.816407 1.382812-1.773438 1.792968-2.816407.910156-2.066406.910156-4.417968 0-6.484374-.433594-1.035157-1.039062-1.988282-1.792968-2.816407-.425782-.34375-.851563-.683593-1.363282-1.023437-.433594-.339844-.925781-.601563-1.449218-.769532-.507813-.261718-1.058594-.433593-1.621094-.511718-1.097656-.257813-2.234375-.257813-3.328125 0-.535157.09375-1.054688.265625-1.539063.511718-.542968.1875-1.058594.445313-1.535156.769532l-1.28125 1.023437c-3.296875 3.363281-3.296875 8.75 0 12.117188zm0 0"/><path fill="#c78030" d="m153.601562 324.265625h17.066407c4.710937 0 8.53125-3.820313 8.53125-8.53125 0-4.714844-3.820313-8.535156-8.53125-8.535156h-17.066407c-4.714843 0-8.535156 3.820312-8.535156 8.535156 0 4.710937 3.820313 8.53125 8.535156 8.53125zm0 0"/><path fill="#c78030" d="m287.660156 309.675781c-.429687-.34375-.855468-.683593-1.367187-1.023437-.433594-.339844-.925781-.601563-1.449219-.769532-.507812-.261718-1.058594-.433593-1.621094-.511718-1.097656-.257813-2.234375-.257813-3.328125 0-.535156.09375-1.054687.265625-1.539062.511718-.542969.1875-1.058594.445313-1.535157.769532l-1.277343 1.023437c-3.300781 3.363281-3.300781 8.75 0 12.117188l1.277343 1.023437c.476563.324219.992188.582032 1.535157.769532.484375.246093 1.003906.417968 1.539062.511718.5625.097656 1.132813.15625 1.707031.167969.542969-.011719 1.085938-.070313 1.621094-.167969.5625-.082031 1.113282-.253906 1.621094-.511718.523438-.171876 1.015625-.429688 1.449219-.769532.511719-.339844.9375-.683594 1.367187-1.023437.769532-.816407 1.378906-1.773438 1.789063-2.816407.914062-2.066406.914062-4.421874 0-6.484374-.429688-1.035157-1.039063-1.988282-1.789063-2.816407zm0 0"/><path fill="#c78030" d="m366.933594 307.199219h-51.199219c-4.714844 0-8.535156 3.820312-8.535156 8.535156 0 4.710937 3.820312 8.53125 8.535156 8.53125h51.199219c4.710937 0 8.53125-3.820313 8.53125-8.53125 0-4.714844-3.820313-8.535156-8.53125-8.535156zm0 0"/><path fill="#c78030" d="m238.933594 375.464844h187.734375c4.710937 0 8.53125-3.820313 8.53125-8.53125 0-4.714844-3.820313-8.535156-8.53125-8.535156v-68.265626c0-9.425781-7.640625-17.066406-17.066407-17.066406h-153.601562c-9.425781 0-17.066406 7.640625-17.066406 17.066406v68.265626c-4.714844 0-8.535156 3.820312-8.535156 8.535156 0 4.710937 3.820312 8.53125 8.535156 8.53125zm17.066406-85.332032h153.601562v68.265626h-153.601562zm0 0"/><path fill="#c78030" d="m307.199219 392.535156h-51.199219c-9.425781 0-17.066406 7.640625-17.066406 17.066406v17.066407c0 9.425781 7.640625 17.066406 17.066406 17.066406h51.199219c9.425781 0 17.066406-7.640625 17.066406-17.066406v-17.066407c0-9.425781-7.640625-17.066406-17.066406-17.066406zm-51.199219 34.132813v-17.066407h51.199219v17.066407zm0 0"/><path fill="#c78030" d="m409.601562 392.535156h-51.203124c-9.425782 0-17.066407 7.640625-17.066407 17.066406v17.066407c0 9.425781 7.640625 17.066406 17.066407 17.066406h51.203124c9.425782 0 17.066407-7.640625 17.066407-17.066406v-17.066407c0-9.425781-7.640625-17.066406-17.066407-17.066406zm-51.203124 34.132813v-17.066407h51.203124v17.066407zm0 0"/></svg>