<?xml version="1.0" standalone="no"?>
<!DOCTYPE svg PUBLIC "-//W3C//DTD SVG 20010904//EN"
 "http://www.w3.org/TR/2001/REC-SVG-20010904/DTD/svg10.dtd">
<svg version="1.0" xmlns="http://www.w3.org/2000/svg"
 width="512.000000pt" height="512.000000pt" viewBox="0 0 512.000000 512.000000"
 preserveAspectRatio="xMidYMid meet">

<g transform="translate(0.000000,512.000000) scale(0.100000,-0.100000)"
fill="#c78030" stroke="none">
<path fill="#c78030" d="M1875 5113 c-1261 -109 -2120 -1319 -1809 -2548 158 -624 615 -1147
1216 -1391 148 -60 193 -66 225 -32 30 34 34 55 19 92 -12 29 -25 37 -112 71
-140 54 -295 133 -399 204 -147 99 -139 76 -63 188 90 132 103 167 103 278 0
98 -9 123 -106 293 -28 49 -42 86 -43 112 -1 42 5 52 129 204 82 101 136 187
167 265 17 44 22 77 23 151 0 86 -3 101 -31 161 -20 42 -58 94 -107 146 -114
122 -123 149 -87 247 21 55 39 80 144 203 155 181 157 334 5 483 -91 90 -161
118 -383 155 l-38 6 28 31 c71 74 320 258 351 258 6 0 38 -15 71 -34 130 -77
324 -149 505 -188 142 -31 548 -33 702 -4 147 27 349 97 485 167 l119 61 38
-22 c21 -12 73 -47 115 -77 l77 -56 -26 -34 c-85 -111 -207 -175 -381 -199
-247 -34 -298 -51 -365 -123 -62 -66 -81 -121 -75 -218 6 -98 21 -127 118
-228 74 -77 110 -128 110 -158 0 -30 63 -137 99 -170 66 -60 137 -80 271 -79
63 1 153 8 200 18 118 22 272 30 310 14 17 -7 42 -32 59 -61 25 -39 37 -49 66
-55 44 -8 83 16 98 60 22 65 -85 195 -183 225 -59 18 -227 13 -340 -9 -120
-24 -285 -27 -333 -6 -39 16 -58 43 -82 116 -28 88 -43 110 -133 202 -82 84
-85 90 -90 141 -4 46 -1 57 23 85 32 38 88 56 230 72 134 14 203 33 304 82 68
32 101 57 168 124 l83 83 65 -67 c250 -261 429 -623 486 -984 14 -91 38 -122
94 -122 83 0 96 60 55 253 -114 540 -454 1020 -933 1318 -358 221 -823 333
-1242 296z m385 -178 c176 -21 362 -69 505 -130 l40 -17 -56 -28 c-81 -41
-246 -97 -363 -122 -88 -19 -132 -22 -336 -22 -208 0 -247 2 -340 22 -121 27
-246 68 -351 116 l-74 33 40 18 c276 118 625 167 935 130z m-1495 -714 c72
-11 146 -26 165 -35 48 -20 105 -64 135 -105 50 -70 29 -128 -99 -270 -76 -84
-131 -189 -148 -280 -21 -112 34 -239 153 -356 71 -70 92 -115 87 -184 -6 -85
-52 -170 -173 -321 -126 -158 -149 -201 -148 -285 1 -74 18 -123 90 -248 56
-98 73 -158 59 -210 -3 -13 -33 -66 -66 -116 -51 -77 -63 -90 -78 -82 -25 13
-157 168 -229 269 -81 112 -203 357 -248 494 -150 464 -118 953 90 1386 52
109 137 248 197 325 35 44 35 44 213 18z"/>
<path fill="#c78030" d="M2379 3061 c-14 -5 -35 -14 -48 -21 -24 -12 -729 -633 -768 -677 -21
-22 -23 -34 -23 -128 0 -154 42 -268 136 -365 l34 -36 2 -864 3 -865 24 -34
c13 -18 42 -42 65 -52 39 -18 99 -19 1523 -19 1023 0 1490 3 1510 11 38 14 83
57 99 96 12 27 14 182 14 878 l0 845 45 56 c87 106 125 215 125 359 0 59 -4
87 -16 104 -28 40 -752 678 -792 698 -35 17 -85 18 -972 20 -514 1 -947 -2
-961 -6z m361 -166 c0 -3 -70 -117 -156 -255 l-156 -250 -291 0 c-160 0 -288
2 -286 4 2 2 131 116 287 255 l283 251 159 0 c88 0 160 -2 160 -5z m500 -250
l0 -255 -306 0 -306 0 21 33 c11 17 82 132 158 254 l138 222 148 1 147 0 0
-255z m624 6 c86 -136 156 -251 156 -255 0 -3 -137 -6 -305 -6 l-305 0 0 255
0 255 149 0 149 0 156 -249z m392 227 c16 -12 146 -126 289 -253 l259 -230
-279 -3 c-154 -1 -285 0 -291 2 -6 2 -76 107 -154 233 -79 125 -150 238 -158
251 l-14 22 160 0 c149 0 161 -1 188 -22z m-1870 -705 c-14 -108 -86 -206
-188 -260 -47 -25 -63 -28 -148 -28 -80 0 -103 4 -145 25 -107 52 -195 177
-195 275 l0 35 341 0 342 0 -7 -47z m851 -4 c-13 -104 -91 -210 -192 -259 -42
-21 -64 -25 -145 -25 -89 0 -99 2 -158 34 -98 53 -164 148 -178 255 l-7 46
343 0 343 0 -6 -51z m855 6 c-9 -109 -107 -233 -217 -274 -203 -76 -427 59
-459 277 l-6 42 342 -2 343 -3 -3 -40z m853 -2 c-16 -111 -92 -213 -195 -262
-47 -22 -69 -26 -145 -26 -75 0 -98 5 -140 25 -107 52 -195 177 -195 275 l0
35 341 0 341 0 -7 -47z m-2289 -400 c154 -82 326 -84 484 -5 30 15 85 57 123
93 l67 67 61 -63 c198 -207 513 -209 722 -5 l68 67 67 -66 c73 -73 159 -121
253 -141 55 -12 191 -9 252 6 l27 6 0 -781 0 -781 -940 0 -940 0 0 583 0 582
-24 50 c-25 55 -79 108 -135 134 -53 24 -479 24 -532 0 -56 -26 -110 -79 -135
-134 l-24 -50 0 -582 0 -583 -85 0 -85 0 0 781 0 781 28 -6 c58 -15 190 -18
245 -6 91 18 193 75 261 145 l61 61 60 -60 c33 -34 87 -75 121 -93z m50 -436
l24 -28 0 -570 0 -569 -255 0 -255 0 0 569 c0 555 0 569 20 594 11 14 30 28
43 30 12 3 107 4 210 4 l189 -2 24 -28z"/>
<path fill="#c78030" d="M3273 1531 c-49 -12 -120 -58 -149 -96 -51 -67 -54 -98 -54 -495 0
-427 2 -441 78 -520 79 -81 71 -80 692 -80 619 0 610 -1 690 80 78 77 80 91
80 520 0 405 -3 434 -61 503 -17 21 -54 50 -83 65 l-51 27 -555 2 c-305 1
-569 -2 -587 -6z m1111 -175 c56 -23 57 -35 54 -434 -3 -361 -3 -361 -26 -384
l-23 -23 -549 0 -549 0 -23 23 c-23 23 -23 23 -26 384 -3 396 -1 411 52 434
46 20 1042 20 1090 0z"/>
<path fill="#c78030" d="M3826 1041 c-222 -222 -240 -242 -240 -275 0 -64 64 -102 121 -72 15
8 128 115 251 239 197 199 222 227 222 256 0 23 -9 42 -29 62 -57 56 -60 54
-325 -210z"/>
<path fill="#c78030" d="M3484 1128 c-78 -77 -88 -109 -49 -156 21 -25 35 -32 63 -32 31 0 45
9 105 70 67 67 69 71 64 107 -8 47 -38 73 -84 73 -30 0 -45 -10 -99 -62z"/>
<path fill="#c78030" d="M2501 826 c-61 -65 7 -170 89 -136 85 35 61 160 -30 160 -26 0 -43
-7 -59 -24z"/>
</g>
</svg>
