<?xml version="1.0" standalone="no"?>
<!DOCTYPE svg PUBLIC "-//W3C//DTD SVG 20010904//EN"
 "http://www.w3.org/TR/2001/REC-SVG-20010904/DTD/svg10.dtd">
<svg version="1.0" xmlns="http://www.w3.org/2000/svg"
 width="512.000000pt" height="512.000000pt" viewBox="0 0 512.000000 512.000000"
 preserveAspectRatio="xMidYMid meet">

<g transform="translate(0.000000,512.000000) scale(0.100000,-0.100000)"
fill="#f2952c" stroke="none">
<path fill="#f2952c" d="M512 4500 c-251 -66 -445 -272 -497 -525 -14 -70 -15 -166 -13 -770
l3 -690 31 -86 c76 -213 234 -365 459 -441 l70 -23 1424 -5 1424 -5 131 -462
c116 -407 135 -466 161 -493 36 -38 68 -56 116 -65 64 -12 111 10 244 115 70
55 128 100 129 100 1 0 100 -112 221 -249 121 -136 235 -259 253 -272 48 -33
135 -38 188 -11 53 28 229 208 249 254 8 21 15 50 15 65 0 73 -19 101 -236
348 -119 135 -215 247 -213 248 64 42 155 128 170 161 22 49 24 114 5 159 -28
66 -70 90 -396 232 -173 76 -317 139 -318 141 -2 1 14 33 36 71 51 86 80 173
93 277 15 122 6 1356 -10 1421 -7 28 -33 93 -58 145 -39 81 -58 108 -132 180
-99 98 -187 149 -307 180 -75 20 -116 20 -1623 19 -1488 0 -1549 -1 -1619 -19z
m3180 -161 c133 -28 282 -139 341 -254 64 -127 62 -103 62 -850 l0 -680 -23
-65 c-21 -58 -56 -121 -96 -173 -13 -17 -26 -13 -209 68 -230 100 -270 106
-349 56 -79 -50 -106 -139 -73 -247 8 -27 15 -52 15 -57 0 -4 -624 -6 -1388
-5 l-1387 3 -69 27 c-130 50 -230 138 -287 250 -58 115 -59 124 -59 824 0 412
4 662 11 700 33 182 181 343 364 395 56 16 172 18 1577 18 1071 1 1533 -2
1570 -10z m394 -2280 c624 -274 606 -266 602 -284 -2 -7 -51 -52 -110 -99
-111 -89 -130 -116 -112 -162 5 -13 115 -144 244 -290 129 -147 237 -271 239
-276 4 -13 -159 -178 -176 -178 -7 0 -119 120 -249 268 -130 147 -247 277
-261 290 -34 31 -81 29 -129 -7 -21 -15 -93 -72 -159 -125 -66 -53 -123 -96
-127 -96 -4 0 -11 8 -17 18 -9 18 -317 1099 -327 1152 -6 25 -3 30 13 30 11 0
267 -108 569 -241z"/>
<path fill="#f2952c" d="M625 3986 l-25 -25 0 -715 0 -715 24 -28 24 -28 224 0 c246 0 285 7
380 67 230 144 264 473 70 662 l-41 39 48 48 c110 111 149 290 97 437 -39 109
-137 210 -248 255 -48 19 -76 22 -290 25 l-237 4 -26 -26z m505 -170 c95 -50
144 -128 145 -231 0 -82 -20 -130 -77 -186 -59 -57 -107 -69 -280 -69 l-148 0
0 256 0 256 163 -4 c134 -3 168 -6 197 -22z m-34 -671 c220 -65 246 -375 40
-471 -47 -22 -64 -24 -208 -24 l-158 0 0 255 0 255 138 0 c93 0 155 -5 188
-15z"/>
<path fill="#f2952c" d="M1735 3985 l-25 -24 0 -566 c0 -545 1 -568 21 -627 117 -347 586
-394 772 -77 55 94 57 116 57 706 0 376 -3 550 -11 566 -23 51 -92 61 -133 21
l-26 -27 0 -542 c0 -595 -1 -606 -60 -677 -45 -54 -120 -88 -196 -88 -100 0
-181 48 -227 134 -22 40 -22 48 -27 609 l-5 569 -28 24 c-37 31 -81 31 -112
-1z"/>
<path fill="#f2952c" d="M2759 3981 c-16 -16 -29 -40 -29 -53 0 -13 97 -197 215 -410 l215
-387 0 -300 c0 -297 0 -300 23 -325 24 -28 48 -34 89 -23 54 14 58 37 58 361
l0 295 210 378 c154 278 210 387 210 411 0 65 -74 104 -127 67 -12 -8 -101
-159 -199 -335 -139 -250 -181 -318 -190 -308 -6 7 -87 150 -179 318 -92 168
-177 313 -189 322 -32 27 -73 22 -107 -11z"/>
</g>
</svg>
